<?xml version="1.0" standalone="no"?>
<!DOCTYPE svg PUBLIC "-//W3C//DTD SVG 20010904//EN"
 "http://www.w3.org/TR/2001/REC-SVG-20010904/DTD/svg10.dtd">
<svg version="1.0" xmlns="http://www.w3.org/2000/svg"
 width="1876.000000pt" height="1876.000000pt" viewBox="0 0 1876.000000 1876.000000"
 preserveAspectRatio="xMidYMid meet">
<metadata>
Created by potrace 1.14, written by Peter Selinger 2001-2017
</metadata>
<g transform="translate(0.000000,1876.000000) scale(0.100000,-0.100000)"
fill="#000000" stroke="none">
<path d="M863 18734 c-64 -32 -113 -111 -107 -174 7 -73 28 -110 89 -151 32
-22 49 -26 97 -25 32 1 61 5 65 9 8 9 43 -22 43 -37 0 -7 9 -18 20 -26 11 -8
20 -18 20 -23 0 -11 102 -161 113 -165 4 -2 7 -10 7 -17 0 -7 4 -15 8 -17 12
-5 72 -95 72 -108 0 -6 5 -8 10 -5 6 3 10 0 10 -8 0 -7 8 -22 18 -33 9 -11 22
-27 27 -36 6 -9 37 -56 70 -104 78 -112 85 -122 119 -175 16 -24 33 -45 37
-47 5 -2 9 -10 9 -18 0 -8 5 -14 10 -14 6 0 10 -7 10 -15 0 -8 5 -15 10 -15 6
0 10 -7 10 -15 0 -9 7 -18 15 -21 8 -3 17 -15 21 -27 4 -12 12 -27 18 -33 6
-7 31 -42 56 -79 25 -36 60 -86 78 -110 17 -24 32 -49 32 -54 0 -6 3 -11 8
-11 4 0 23 -25 41 -55 19 -30 39 -55 44 -55 4 0 6 -4 3 -9 -3 -4 3 -16 14 -26
11 -10 20 -24 20 -32 0 -7 7 -16 15 -19 8 -4 15 -12 15 -20 0 -8 5 -14 12 -14
6 0 9 -3 5 -6 -3 -3 5 -18 18 -32 13 -14 22 -29 19 -34 -3 -4 -1 -8 5 -8 6 0
18 -15 27 -32 9 -18 20 -35 24 -38 5 -4 59 -80 150 -215 8 -12 34 -50 57 -84
24 -34 43 -65 43 -67 0 -3 11 -17 25 -32 14 -15 25 -31 25 -35 0 -5 6 -15 13
-22 26 -30 37 -44 37 -50 0 -7 38 -62 63 -89 9 -11 17 -26 17 -33 0 -7 4 -13
8 -13 5 0 17 -16 28 -35 10 -19 23 -35 28 -35 5 0 7 -3 3 -6 -3 -4 1 -13 9
-21 8 -8 36 -47 62 -85 139 -208 205 -303 216 -310 6 -4 8 -8 4 -8 -5 0 2 -12
15 -26 12 -14 20 -28 19 -31 -2 -3 0 -9 6 -12 5 -3 31 -37 57 -76 27 -38 53
-73 59 -77 6 -4 7 -8 3 -8 -4 0 10 -24 31 -52 21 -29 78 -111 127 -183 48 -71
94 -137 102 -146 12 -15 35 5 216 185 111 110 238 233 281 271 44 39 87 77 96
86 14 14 93 81 168 144 13 11 33 28 45 38 12 10 37 31 56 45 77 61 77 61 61
71 -9 5 -27 20 -41 33 -15 13 -46 39 -69 58 -24 19 -51 43 -61 53 -11 9 -19
14 -19 10 0 -3 -10 5 -22 18 -13 14 -41 38 -63 54 -22 16 -46 35 -53 42 -12
11 -91 76 -120 98 -7 6 -23 20 -34 33 -12 12 -25 22 -30 22 -5 0 -19 10 -32
23 -13 12 -40 36 -62 52 -21 17 -45 38 -53 48 -9 9 -19 17 -24 17 -4 0 -18 10
-31 23 -13 12 -38 33 -56 47 -18 14 -43 35 -56 48 -13 13 -24 21 -24 18 0 -3
-12 6 -27 20 -14 13 -40 35 -55 47 -16 12 -42 33 -58 47 -16 14 -42 35 -58 47
-15 12 -41 34 -56 48 -15 14 -30 25 -34 25 -4 0 -28 19 -54 43 -26 23 -58 51
-72 62 -14 11 -36 29 -49 40 -13 11 -38 31 -56 45 -18 14 -40 32 -49 41 -10 8
-53 44 -97 79 -44 36 -81 68 -83 72 -2 5 -8 8 -12 8 -5 0 -20 10 -33 23 -47
43 -87 77 -92 77 -5 0 -29 20 -75 63 -17 15 -30 25 -30 23 0 -3 -16 9 -36 27
-66 59 -82 72 -105 87 -12 8 -31 25 -42 38 -11 12 -27 22 -34 22 -7 0 -13 4
-13 8 0 5 -23 26 -51 48 -27 21 -71 58 -97 81 -26 24 -50 43 -54 43 -4 0 -18
10 -31 23 -12 12 -43 38 -66 57 -24 19 -50 41 -57 48 -7 6 -15 12 -18 12 -3 0
-19 14 -36 31 -16 18 -30 29 -30 25 0 -3 -9 2 -19 12 -52 47 -69 62 -74 62 -3
0 -18 13 -35 28 -16 16 -44 39 -62 53 -18 13 -43 34 -56 47 -12 12 -26 22 -30
22 -4 0 -14 8 -23 18 -9 9 -33 30 -54 45 -20 16 -49 40 -62 53 -14 14 -25 23
-25 20 0 -3 -19 13 -42 34 -24 22 -46 40 -49 40 -3 0 -17 10 -31 23 -14 12
-37 32 -51 44 -25 21 -25 22 -11 69 8 26 11 57 7 68 -4 12 -6 25 -5 29 3 12
-29 71 -47 85 -65 51 -147 66 -208 36z"/>
<path d="M9257 17384 c-1 -1 -81 -5 -177 -9 -96 -3 -195 -8 -220 -10 -25 -2
-83 -6 -130 -9 -47 -3 -103 -8 -125 -11 -22 -2 -67 -7 -100 -11 -33 -3 -73 -8
-90 -10 -16 -2 -52 -6 -80 -9 -27 -3 -61 -7 -75 -10 -14 -4 -41 -8 -60 -10
-19 -2 -51 -6 -70 -10 -19 -4 -46 -9 -60 -10 -24 -4 -45 -7 -120 -22 -19 -3
-46 -8 -60 -9 -14 -2 -55 -10 -91 -18 -63 -14 -93 -21 -149 -32 -14 -3 -33 -7
-42 -10 -10 -3 -30 -8 -45 -10 -15 -3 -95 -23 -178 -45 -189 -50 -168 -44
-250 -69 -38 -11 -81 -23 -94 -26 -13 -3 -34 -10 -45 -16 -12 -6 -22 -11 -23
-10 -2 1 -4 2 -5 1 -2 0 -11 -2 -21 -4 -10 -2 -26 -7 -35 -11 -9 -4 -22 -8
-28 -9 -5 -2 -57 -20 -115 -40 -57 -21 -110 -38 -116 -38 -7 0 -13 -5 -13 -10
0 -6 -3 -7 -6 -4 -4 3 -16 1 -28 -5 -11 -7 -25 -13 -31 -14 -5 -1 -23 -8 -40
-15 -16 -6 -34 -13 -40 -14 -15 -4 -113 -44 -161 -66 -24 -10 -46 -19 -49 -19
-4 0 -37 -14 -73 -31 -37 -17 -71 -32 -77 -33 -5 -1 -41 -18 -80 -36 -38 -19
-72 -35 -75 -35 -3 -1 -53 -25 -112 -54 -59 -29 -110 -51 -113 -49 -4 2 -11
-5 -16 -15 -6 -9 -14 -15 -20 -12 -5 4 -9 1 -9 -5 0 -7 -7 -10 -15 -6 -8 3
-15 2 -15 -3 0 -4 -19 -16 -42 -27 -24 -10 -45 -21 -48 -24 -3 -4 -39 -25 -80
-47 -72 -39 -169 -93 -200 -113 -16 -9 -140 -86 -175 -107 -11 -7 -27 -15 -35
-19 -8 -4 -17 -10 -20 -13 -8 -10 -69 -51 -74 -51 -3 0 -15 -8 -26 -17 -11
-10 -24 -18 -28 -17 -4 0 -12 -4 -19 -10 -20 -18 -35 -29 -103 -76 -36 -24
-66 -48 -68 -52 -2 -4 -8 -8 -14 -8 -8 0 -55 -32 -95 -65 -28 -23 -40 -32 -73
-55 -19 -13 -37 -27 -40 -30 -3 -3 -38 -30 -77 -60 -40 -30 -73 -58 -73 -62 0
-5 -4 -8 -10 -8 -5 0 -20 -9 -32 -19 -29 -25 -54 -46 -114 -96 -26 -22 -56
-48 -66 -57 -10 -10 -20 -18 -23 -18 -2 0 -15 -10 -27 -22 -13 -13 -66 -61
-118 -108 -51 -47 -128 -119 -171 -161 -43 -42 -81 -74 -84 -71 -3 3 -5 1 -5
-5 0 -5 -51 -62 -114 -126 -63 -65 -113 -117 -111 -117 1 0 -20 -24 -47 -52
-28 -29 -71 -78 -97 -108 -25 -30 -56 -66 -68 -80 -13 -14 -23 -28 -23 -32 0
-5 -8 -8 -17 -8 -9 0 -14 -3 -10 -6 3 -3 -3 -15 -13 -27 -10 -12 -35 -42 -56
-67 -22 -25 -50 -61 -64 -79 -14 -18 -30 -38 -35 -44 -6 -7 -31 -39 -55 -72
-25 -33 -47 -62 -51 -65 -9 -9 -181 -251 -234 -330 -28 -41 -53 -76 -57 -78
-5 -2 -8 -8 -8 -12 0 -11 -110 -183 -123 -191 -5 -3 -9 -10 -8 -15 0 -5 -10
-25 -21 -44 -12 -19 -22 -37 -23 -40 0 -3 -14 -25 -30 -50 -38 -61 -94 -159
-108 -192 -6 -16 -15 -28 -20 -28 -4 0 -6 -4 -2 -9 3 -5 1 -12 -4 -16 -8 -4
-213 -403 -212 -412 0 -1 -16 -37 -35 -80 -58 -127 -93 -210 -93 -216 0 -1
-12 -29 -26 -62 -15 -33 -29 -67 -31 -75 -3 -12 -29 -82 -79 -205 -5 -11 -7
-26 -6 -32 1 -7 -4 -13 -10 -13 -7 0 -10 -3 -6 -6 3 -3 -6 -36 -20 -72 -14
-37 -26 -74 -28 -82 -2 -8 -18 -58 -35 -110 -18 -52 -33 -99 -34 -105 -5 -19
-27 -100 -31 -113 -3 -7 -4 -13 -4 -15 0 -1 -4 -14 -10 -30 -6 -15 -13 -38
-15 -50 -12 -54 -15 -68 -20 -75 -3 -5 -7 -19 -9 -33 -3 -13 -13 -53 -22 -89
-9 -36 -19 -76 -21 -90 -3 -14 -7 -32 -10 -40 -3 -8 -8 -26 -10 -40 -2 -14
-14 -70 -25 -125 -27 -128 -28 -132 -34 -180 -3 -22 -8 -47 -10 -55 -5 -17
-10 -45 -31 -180 -4 -25 -8 -60 -8 -77 -1 -18 -3 -33 -6 -33 -3 0 -6 -8 -6
-17 -1 -16 -3 -41 -20 -178 -3 -22 -7 -60 -9 -85 -7 -81 -17 -194 -20 -240 -2
-25 -4 -45 -5 -45 -6 0 -13 -312 -13 -535 0 -302 8 -522 28 -725 3 -27 8 -77
11 -110 6 -68 11 -107 18 -150 2 -16 7 -57 11 -90 3 -33 8 -67 10 -75 2 -8 6
-33 9 -55 2 -22 12 -83 21 -135 9 -52 18 -108 21 -125 3 -16 7 -37 9 -45 2 -8
7 -28 10 -45 3 -16 10 -50 14 -75 5 -25 12 -56 16 -70 4 -14 8 -34 9 -45 1
-11 5 -29 9 -40 6 -19 8 -29 23 -100 15 -71 101 -383 140 -505 8 -25 14 -49
15 -55 1 -5 5 -17 10 -26 4 -9 10 -27 13 -40 2 -13 16 -52 30 -87 13 -34 25
-65 26 -67 2 -12 12 -39 55 -155 26 -69 54 -145 63 -170 10 -25 21 -48 26 -51
5 -4 5 -12 2 -18 -4 -6 -2 -11 3 -11 6 0 11 -7 11 -15 0 -8 9 -32 20 -52 10
-20 17 -40 14 -45 -3 -4 0 -8 5 -8 6 0 11 -4 11 -10 0 -10 25 -67 96 -218 24
-51 44 -95 44 -98 0 -3 10 -20 22 -37 13 -18 22 -33 20 -35 -2 -2 50 -107 100
-197 15 -27 34 -63 42 -80 9 -16 32 -57 51 -90 20 -33 39 -68 42 -78 3 -9 9
-17 14 -17 5 0 9 -4 9 -10 0 -12 92 -164 102 -168 4 -2 6 -8 2 -13 -3 -5 0 -9
5 -9 6 0 11 -7 11 -15 0 -8 5 -15 10 -15 6 0 10 -4 10 -9 0 -11 81 -134 95
-143 5 -4 6 -8 2 -8 -4 0 1 -10 12 -22 11 -11 18 -25 15 -30 -3 -4 -1 -8 4 -8
6 0 25 -24 43 -52 19 -29 37 -57 41 -63 47 -62 89 -119 118 -160 19 -27 41
-57 50 -67 8 -9 30 -36 48 -60 64 -83 145 -184 191 -237 25 -30 45 -59 43 -64
-1 -4 2 -6 8 -2 5 3 10 3 10 -2 0 -4 17 -26 36 -48 222 -248 342 -375 355
-375 5 0 9 -6 10 -12 0 -7 27 -35 59 -63 32 -27 59 -56 59 -62 1 -7 5 -13 9
-13 5 0 44 -34 87 -75 43 -41 80 -75 82 -75 2 0 22 -18 44 -40 23 -22 46 -40
51 -40 5 0 6 -4 3 -10 -3 -5 -1 -10 6 -10 11 0 22 -9 95 -77 19 -18 34 -29 34
-26 0 4 13 -7 30 -25 16 -18 30 -31 30 -29 0 5 47 -33 81 -65 11 -10 19 -16
19 -14 0 4 49 -35 81 -66 11 -10 19 -16 19 -13 0 5 37 -25 66 -53 7 -6 17 -12
22 -12 6 0 12 -3 14 -8 2 -4 32 -28 68 -54 36 -26 70 -51 75 -56 6 -5 24 -17
40 -28 17 -10 32 -21 35 -24 12 -13 192 -130 200 -130 4 0 10 -4 12 -9 2 -5
17 -17 35 -27 45 -26 148 -91 210 -130 28 -19 56 -34 62 -34 6 0 11 -5 11 -12
0 -6 3 -9 6 -6 3 4 22 -5 41 -18 20 -13 42 -24 49 -24 8 0 14 -4 14 -10 0 -5
5 -10 10 -10 6 0 28 -11 50 -25 21 -14 45 -26 52 -27 7 -2 15 -6 18 -9 9 -12
300 -158 300 -151 0 4 4 2 8 -4 7 -10 23 -18 157 -78 44 -20 93 -43 108 -51
16 -8 35 -15 43 -15 8 0 14 -4 14 -10 0 -5 7 -10 15 -10 8 0 34 -9 58 -19 23
-10 62 -26 87 -36 25 -9 59 -23 75 -30 17 -7 57 -23 90 -35 33 -12 69 -26 80
-30 23 -10 165 -61 180 -64 6 -2 17 -6 25 -9 15 -5 188 -61 289 -92 30 -9 86
-25 125 -35 39 -10 98 -26 131 -35 33 -9 69 -18 81 -19 11 -2 25 -6 31 -9 5
-3 25 -9 44 -12 19 -3 52 -11 74 -16 22 -5 54 -12 70 -16 49 -9 60 -11 60 -13
0 -1 11 -3 25 -5 14 -2 36 -6 50 -9 47 -11 79 -17 215 -41 17 -3 41 -7 55 -9
48 -9 245 -38 285 -41 22 -3 50 -7 62 -9 12 -3 57 -8 100 -12 43 -3 92 -8 108
-10 48 -6 253 -21 415 -29 107 -6 587 -6 700 0 47 2 130 7 185 11 55 4 117 7
137 8 21 0 38 3 38 6 0 3 21 5 48 6 26 0 72 4 102 8 30 3 75 9 100 11 25 3 61
7 80 10 19 3 55 8 80 11 80 10 95 12 95 14 0 1 9 3 20 4 55 7 154 23 220 36
28 6 61 13 75 15 42 9 74 15 105 20 17 3 46 10 65 15 19 5 51 12 70 15 19 3
53 11 75 17 61 17 68 19 95 23 14 1 25 4 25 4 0 2 179 51 235 65 8 3 27 9 43
15 15 6 27 9 27 6 0 -2 16 3 35 11 20 8 40 12 45 9 6 -4 10 -1 10 5 0 6 4 9 9
5 5 -3 12 -1 16 5 3 5 17 10 30 10 13 0 27 5 30 10 4 6 12 10 18 9 7 -1 19 1
27 4 51 21 130 44 130 39 0 -4 4 -2 8 3 4 6 41 21 82 35 41 14 77 27 80 30 3
3 12 6 20 8 20 5 134 49 187 73 24 10 46 19 51 19 8 0 82 33 114 50 10 6 25
10 33 10 8 0 15 5 15 11 0 5 4 8 9 4 5 -3 12 -1 16 5 3 5 15 10 26 10 10 0 19
5 19 10 0 6 6 10 13 10 8 0 27 6 43 14 16 8 40 20 54 25 14 6 32 15 40 20 8 5
69 35 135 68 170 84 249 126 257 138 4 5 8 6 8 2 0 -4 25 8 55 28 30 19 55 33
55 30 0 -3 24 10 53 28 94 61 112 71 119 72 4 0 16 8 28 17 11 10 20 15 20 13
0 -3 6 -1 13 5 25 21 136 90 147 90 5 0 10 4 10 8 0 5 12 15 28 23 15 8 29 16
32 19 3 3 51 36 107 73 57 38 150 104 209 148 58 43 110 79 114 79 5 0 10 4
12 8 2 4 55 48 118 97 63 50 120 95 125 101 6 6 36 32 67 57 31 25 54 48 51
51 -4 3 0 6 8 6 8 0 30 15 49 33 20 17 83 75 140 127 135 121 460 448 460 461
0 6 5 7 10 4 6 -3 10 -2 10 2 0 5 17 27 38 49 20 23 64 72 97 110 33 37 67 75
75 84 8 9 44 52 79 95 35 44 71 86 80 92 8 7 11 13 7 13 -4 0 4 11 18 24 15
13 26 26 26 30 0 4 6 14 13 21 6 8 17 20 22 27 6 7 27 35 48 61 21 26 36 47
33 47 -3 0 6 12 19 26 13 14 41 51 62 82 21 31 41 59 44 62 16 13 255 380 329
505 46 77 88 149 95 160 7 11 13 25 15 30 1 6 10 21 20 35 9 14 39 68 66 120
27 52 51 97 54 100 3 3 19 34 35 70 17 36 34 68 38 71 5 3 8 8 6 10 -1 2 14
39 34 81 21 43 37 82 37 88 0 5 5 10 10 10 6 0 10 8 10 18 0 9 7 26 15 36 8
10 12 23 9 27 -3 5 0 9 5 9 6 0 10 3 9 8 -1 4 4 19 10 35 7 15 17 39 24 55 6
15 11 30 10 35 -1 4 2 7 8 7 5 0 10 9 10 20 0 11 5 20 10 20 6 0 9 3 9 8 -1 4
0 9 1 12 1 3 3 12 5 20 3 12 74 197 110 285 4 11 9 25 10 30 2 6 15 44 30 85
14 41 28 82 30 90 2 8 4 16 5 18 2 1 3 5 4 10 2 6 40 129 86 277 22 69 70 248
76 285 3 14 8 34 11 45 9 27 13 44 20 85 3 19 10 43 15 53 5 10 7 21 4 24 -2
3 -1 15 4 28 5 13 12 42 15 66 4 24 9 47 12 52 2 4 6 22 9 40 2 18 8 55 14 82
5 28 11 61 14 75 2 14 7 36 10 50 3 14 8 43 10 65 3 22 8 56 11 75 3 19 8 51
10 70 2 19 6 46 9 60 2 14 7 51 11 84 4 32 8 68 11 80 2 11 6 48 8 81 3 33 8
87 11 120 20 218 28 422 28 725 0 318 -5 457 -28 715 -9 95 -24 233 -35 314
-5 35 -9 67 -8 70 0 3 -1 8 -2 11 -1 3 -4 19 -5 35 -2 17 -6 39 -8 50 -3 11
-8 45 -12 75 -4 30 -9 64 -12 75 -7 34 -12 59 -17 96 -3 20 -8 42 -10 50 -3 8
-7 30 -10 49 -9 56 -16 93 -26 129 -5 19 -7 38 -4 43 3 4 1 8 -3 8 -5 0 -9 8
-10 18 0 9 -3 26 -6 38 -5 21 -54 222 -63 259 -3 11 -7 27 -9 35 -2 8 -4 15
-5 15 -1 0 -3 7 -5 15 -21 94 -150 506 -188 600 -6 14 -11 27 -11 30 -1 5 -20
56 -36 95 -4 11 -13 36 -20 55 -7 19 -18 49 -25 65 -8 17 -23 54 -35 84 -11
30 -30 74 -41 97 -10 24 -19 45 -19 48 0 15 -307 644 -320 656 -6 6 -16 24
-62 108 -16 31 -39 69 -49 84 -11 14 -19 29 -19 33 0 4 -14 27 -30 52 -17 24
-30 46 -30 48 0 3 -17 31 -37 62 -47 72 -60 94 -69 113 -4 8 -10 17 -14 20 -3
3 -28 39 -55 80 -26 41 -51 77 -54 80 -3 3 -31 41 -60 85 -30 44 -59 81 -63
83 -4 2 -8 8 -8 13 0 8 -51 80 -70 99 -3 3 -33 41 -66 86 -69 90 -67 88 -158
199 -36 44 -66 83 -66 87 0 5 -8 8 -17 8 -9 0 -14 3 -10 6 6 6 -7 23 -58 78
-16 18 -47 52 -68 77 -145 167 -427 450 -607 609 -40 36 -88 80 -107 98 -18
17 -36 32 -39 32 -4 0 -48 38 -88 75 -6 6 -36 30 -66 54 -30 24 -59 49 -63 57
-4 8 -13 14 -18 14 -6 0 -17 6 -24 13 -20 17 -35 29 -80 62 -22 16 -48 38 -57
49 -10 10 -18 16 -18 12 0 -4 -19 8 -42 27 -24 18 -83 62 -133 97 -49 36 -91
68 -93 72 -2 4 -8 8 -13 8 -7 0 -166 102 -251 161 -15 10 -32 19 -38 19 -5 0
-10 3 -10 8 0 4 -10 12 -23 18 -12 6 -85 48 -162 94 -77 46 -187 108 -245 138
-58 30 -108 60 -112 66 -4 6 -8 8 -8 3 0 -9 -102 43 -112 57 -4 6 -8 8 -8 4 0
-4 -30 8 -67 27 -67 34 -241 115 -247 115 -2 0 -25 10 -52 22 -27 12 -51 23
-54 23 -3 1 -23 9 -45 19 -22 9 -42 17 -45 18 -3 0 -14 5 -25 11 -11 6 -26 12
-33 13 -7 1 -33 12 -58 23 -24 12 -50 21 -57 21 -8 0 -17 3 -20 7 -7 6 -63 28
-172 64 -33 11 -67 23 -75 26 -8 4 -17 7 -20 8 -3 1 -12 4 -20 8 -27 11 -245
79 -265 83 -11 2 -31 8 -45 13 -36 13 -103 32 -120 34 -8 2 -21 6 -27 10 -7 5
-13 6 -13 3 0 -3 -15 1 -34 9 -18 8 -36 12 -39 9 -3 -3 -12 -2 -19 2 -14 9
-16 10 -63 19 -16 3 -43 10 -60 15 -16 5 -57 14 -90 20 -33 6 -67 14 -75 17
-8 3 -24 8 -35 9 -11 2 -68 13 -126 25 -59 11 -115 22 -125 24 -11 2 -19 4
-19 5 0 1 -16 3 -35 5 -19 2 -48 6 -65 10 -16 3 -48 8 -70 11 -22 3 -51 7 -65
10 -31 6 -59 10 -135 19 -33 4 -71 9 -85 11 -14 2 -52 6 -85 9 -33 3 -76 8
-95 10 -122 13 -255 22 -465 31 -147 6 -434 11 -438 8z m388 -1258 c164 -6
335 -18 450 -31 22 -3 60 -7 85 -10 77 -7 144 -16 170 -22 14 -3 36 -7 50 -8
44 -5 112 -16 215 -36 55 -11 115 -22 134 -24 19 -3 37 -7 41 -10 4 -2 22 -7
41 -10 45 -7 210 -45 229 -52 8 -3 22 -7 31 -9 8 -2 40 -10 70 -18 49 -13 90
-25 204 -58 22 -6 46 -16 53 -21 6 -5 12 -7 12 -4 0 3 26 -3 58 -15 31 -11 63
-20 70 -21 6 0 12 -4 12 -9 0 -5 5 -6 10 -3 6 4 16 3 23 -2 7 -5 32 -16 57
-23 25 -7 51 -18 58 -23 6 -5 12 -6 12 -2 0 4 6 3 13 -3 6 -5 27 -13 45 -17
17 -3 32 -10 32 -15 0 -4 15 -11 33 -15 17 -4 34 -9 37 -10 3 -1 23 -10 45
-19 22 -10 82 -36 134 -58 52 -22 136 -60 188 -84 51 -24 97 -44 102 -44 4 0
14 -7 21 -15 7 -8 16 -13 20 -10 5 3 10 2 12 -2 1 -5 51 -32 111 -62 59 -30
107 -59 107 -64 0 -6 3 -8 6 -4 6 6 37 -9 142 -72 29 -17 57 -31 62 -31 6 0
10 -4 10 -10 0 -5 7 -10 15 -10 8 0 15 -4 15 -10 0 -5 6 -10 13 -10 11 -1 146
-85 174 -109 7 -6 15 -11 18 -11 3 0 39 -24 80 -52 42 -29 83 -57 93 -63 17
-9 34 -23 67 -53 8 -7 15 -11 15 -7 0 3 24 -13 54 -37 29 -24 63 -50 76 -58
12 -8 28 -19 34 -25 6 -5 45 -37 86 -70 41 -32 77 -63 78 -67 2 -4 8 -8 14 -8
6 0 18 -8 27 -18 9 -9 32 -30 51 -46 57 -47 169 -147 238 -213 36 -35 66 -63
68 -63 8 0 298 -303 384 -401 30 -34 61 -68 68 -75 6 -7 12 -18 12 -24 0 -6 5
-8 10 -5 6 3 10 0 10 -9 0 -8 4 -16 9 -18 8 -3 196 -236 236 -292 11 -16 28
-38 38 -50 23 -27 147 -206 147 -211 0 -3 9 -16 21 -29 12 -13 20 -27 20 -30
-1 -6 8 -19 37 -51 6 -7 12 -16 12 -19 0 -5 62 -104 92 -148 22 -32 68 -113
80 -140 7 -16 16 -28 20 -28 4 0 8 -6 8 -14 0 -7 9 -25 21 -40 11 -14 17 -26
13 -26 -4 0 -1 -8 7 -17 8 -10 24 -36 36 -58 11 -22 30 -57 42 -77 11 -21 17
-38 13 -38 -4 0 -2 -4 3 -8 13 -9 165 -320 165 -337 0 -3 11 -28 25 -55 14
-27 26 -53 26 -57 2 -11 17 -51 34 -88 23 -51 91 -232 100 -265 1 -3 4 -12 8
-20 3 -8 15 -44 27 -80 12 -36 25 -72 28 -80 3 -8 6 -17 7 -20 0 -3 6 -21 13
-41 7 -20 14 -45 16 -55 2 -10 11 -39 19 -64 13 -39 23 -76 32 -115 2 -5 15
-55 30 -110 15 -55 28 -109 30 -120 1 -11 8 -38 13 -60 6 -22 14 -55 17 -73 3
-18 12 -65 21 -105 9 -39 17 -83 18 -97 2 -14 6 -34 9 -45 3 -11 8 -36 11 -55
7 -55 18 -123 22 -150 7 -42 11 -72 18 -143 4 -37 9 -78 12 -90 2 -12 7 -53
10 -92 3 -38 7 -86 9 -105 18 -153 25 -717 11 -930 -14 -225 -34 -432 -53
-540 -3 -19 -7 -50 -8 -68 -2 -18 -6 -45 -10 -59 -3 -14 -8 -47 -11 -72 -2
-25 -7 -55 -11 -66 -4 -11 -8 -29 -8 -40 -3 -28 -45 -237 -52 -255 -3 -8 -7
-24 -9 -35 -2 -17 -13 -62 -29 -125 -2 -8 -4 -15 -5 -15 -1 0 -3 -9 -4 -20 -2
-11 -9 -40 -16 -65 -6 -25 -14 -52 -16 -60 -7 -32 -43 -150 -48 -158 -3 -5 -7
-19 -9 -33 -3 -13 -24 -80 -47 -149 -24 -69 -43 -131 -43 -137 0 -7 -5 -13
-10 -13 -6 0 -7 -3 -4 -7 4 -3 0 -17 -8 -30 -9 -13 -13 -23 -11 -23 3 0 -8
-30 -23 -67 -15 -38 -28 -70 -28 -73 -1 -3 -9 -25 -19 -50 -10 -25 -18 -48
-16 -52 1 -5 -2 -8 -7 -8 -5 0 -11 -10 -15 -23 -3 -13 -15 -45 -28 -73 -12
-27 -23 -51 -23 -54 -1 -3 -18 -40 -38 -83 -20 -43 -37 -83 -37 -88 0 -5 -5
-9 -10 -9 -6 0 -9 -3 -8 -7 2 -8 -52 -124 -62 -133 -3 -3 -21 -36 -39 -75 -51
-102 -221 -399 -232 -403 -5 -2 -9 -8 -9 -14 0 -5 -14 -29 -30 -54 -17 -24
-29 -44 -26 -44 3 0 -6 -12 -19 -26 -14 -15 -25 -33 -25 -41 0 -7 -7 -16 -15
-19 -8 -4 -15 -11 -15 -16 0 -5 -18 -35 -40 -66 -22 -31 -46 -66 -53 -76 -6
-11 -20 -28 -29 -38 -10 -10 -15 -18 -12 -18 3 0 -1 -6 -8 -13 -7 -7 -24 -30
-38 -50 -14 -20 -28 -37 -32 -37 -5 0 -8 -5 -8 -10 0 -10 -139 -190 -166 -215
-5 -5 -26 -30 -46 -55 -20 -25 -50 -61 -67 -80 -117 -131 -154 -172 -215 -234
-37 -39 -79 -84 -92 -99 -13 -16 -24 -27 -24 -25 0 2 -42 -37 -93 -87 -131
-126 -216 -205 -222 -205 -2 0 -17 -12 -33 -28 -15 -15 -45 -40 -66 -57 -22
-16 -46 -37 -54 -45 -17 -16 -164 -133 -230 -183 -24 -17 -48 -37 -55 -42 -7
-6 -34 -26 -62 -45 -27 -19 -52 -37 -55 -40 -3 -3 -18 -14 -35 -24 -16 -11
-34 -23 -40 -28 -25 -21 -157 -108 -164 -108 -4 0 -16 -9 -26 -20 -10 -11 -21
-17 -26 -15 -4 3 -10 1 -14 -5 -3 -5 -50 -36 -103 -67 -53 -32 -98 -61 -100
-65 -2 -5 -12 -8 -22 -8 -10 0 -20 -4 -22 -8 -4 -11 -141 -87 -150 -84 -5 1
-8 -2 -8 -8 0 -5 -6 -10 -14 -10 -8 0 -22 -8 -32 -17 -10 -10 -19 -17 -21 -15
-2 1 -76 -34 -166 -77 -89 -44 -205 -98 -257 -121 -139 -60 -451 -181 -472
-183 -10 -1 -18 -5 -18 -9 0 -4 -10 -8 -23 -8 -13 0 -27 -4 -33 -9 -5 -6 -27
-14 -49 -20 -22 -6 -125 -35 -228 -66 -104 -30 -199 -57 -210 -59 -12 -3 -24
-5 -27 -6 -3 -2 -9 -2 -13 -1 -4 1 -16 -3 -26 -9 -10 -5 -35 -12 -55 -14 -19
-2 -39 -7 -43 -9 -9 -6 -79 -19 -105 -20 -10 -1 -18 -4 -18 -7 0 -3 -8 -6 -17
-6 -10 -1 -31 -4 -48 -7 -62 -14 -151 -29 -175 -32 -14 -1 -38 -5 -55 -8 -56
-12 -194 -32 -285 -41 -19 -2 -57 -7 -85 -10 -225 -29 -833 -50 -912 -32 -13
3 -23 0 -23 -5 0 -6 -4 -7 -10 -4 -5 3 -51 8 -102 10 -123 6 -230 15 -240 21
-4 3 -8 0 -8 -6 0 -6 -5 -8 -10 -5 -14 9 -44 14 -115 19 -33 3 -76 7 -95 10
-93 13 -204 27 -237 29 -7 0 -13 4 -13 9 0 5 -4 7 -9 4 -5 -3 -33 -1 -62 5
-30 6 -70 12 -89 14 -19 3 -42 6 -50 8 -8 2 -33 7 -55 12 -52 10 -72 14 -145
30 -8 2 -15 4 -15 5 0 1 -12 3 -27 5 -16 2 -37 6 -47 10 -11 3 -28 7 -38 9
-31 6 -292 76 -336 90 -23 7 -62 19 -87 26 -25 8 -49 16 -55 19 -5 3 -19 7
-30 8 -11 2 -29 7 -40 12 -11 5 -56 21 -100 36 -104 36 -250 91 -332 126 -13
5 -33 13 -45 18 -13 5 -38 15 -55 23 -18 7 -33 15 -33 18 0 3 -8 6 -18 7 -10
1 -103 42 -207 92 -103 50 -191 91 -196 91 -5 0 -9 3 -9 8 0 4 -15 14 -32 21
-18 8 -59 29 -90 47 -32 18 -58 30 -58 27 0 -4 -7 2 -15 13 -8 10 -15 16 -15
12 0 -5 -148 78 -175 99 -5 5 -47 31 -92 58 -46 28 -83 54 -83 58 0 5 -4 5
-10 2 -5 -3 -10 -1 -10 4 0 6 -7 11 -15 11 -8 0 -15 5 -15 10 0 6 -7 10 -15
10 -8 0 -15 4 -15 9 0 5 -8 12 -17 15 -10 3 -30 17 -45 31 -16 14 -28 22 -28
18 0 -4 -6 -1 -13 7 -7 8 -24 21 -39 29 -15 8 -36 21 -45 30 -10 9 -41 33 -68
53 -28 21 -56 42 -62 48 -7 6 -13 7 -13 3 0 -4 -7 3 -16 15 -8 12 -21 22 -27
22 -7 0 -18 9 -25 20 -7 11 -17 20 -22 20 -6 0 -18 8 -28 18 -10 9 -38 33 -62
52 -58 46 -145 120 -200 170 -154 140 -213 196 -340 325 -130 131 -266 279
-326 354 -10 13 -28 33 -39 45 -47 50 -105 125 -105 135 0 7 -4 9 -10 6 -5 -3
-10 -1 -10 5 0 6 -9 21 -21 33 -12 12 -32 38 -44 58 -13 20 -29 42 -37 50 -17
19 -65 82 -107 144 -19 28 -38 52 -43 53 -4 2 -8 9 -8 16 0 7 -9 21 -20 31
-11 10 -20 23 -20 30 0 7 -9 20 -20 30 -11 10 -20 23 -20 30 0 7 -9 20 -20 30
-11 10 -20 22 -20 27 0 5 -21 41 -46 81 -79 122 -95 148 -118 191 -53 95 -62
111 -73 124 -7 7 -13 19 -13 26 0 7 -9 25 -21 40 -11 14 -17 26 -13 26 4 0 -1
9 -11 20 -10 11 -15 20 -11 20 4 0 -2 12 -13 26 -11 15 -18 30 -16 34 3 5 1
11 -4 15 -8 4 -102 187 -106 205 -1 3 -11 26 -23 53 -26 56 -59 129 -79 177
-8 19 -22 51 -31 70 -8 19 -17 42 -18 50 -2 8 -7 23 -12 35 -22 47 -103 265
-112 300 -1 6 -7 21 -12 35 -5 14 -11 33 -13 42 -2 9 -9 27 -16 40 -7 13 -12
24 -11 26 5 5 -11 58 -21 70 -5 6 -7 12 -4 12 3 0 -3 30 -14 68 -20 69 -78
285 -84 313 -2 9 -13 61 -25 115 -12 55 -23 108 -25 119 -1 11 -3 20 -4 20 -4
0 -8 24 -32 175 -6 36 -12 76 -15 90 -2 14 -6 39 -8 55 -9 67 -18 131 -21 155
-14 90 -28 249 -41 445 -8 127 -11 626 -4 668 4 21 3 37 -2 37 -5 0 -6 5 -3
10 3 6 8 47 11 93 2 45 6 107 9 137 3 30 8 80 10 110 8 87 23 208 31 255 2 11
7 45 10 75 3 30 8 59 11 63 2 4 6 24 8 45 6 60 15 111 36 213 10 52 21 104 23
115 6 26 30 130 41 174 3 11 7 29 10 40 3 11 7 28 9 38 4 13 26 97 50 187 2 6
6 24 11 40 4 17 10 35 14 40 3 6 7 19 8 30 2 11 8 31 13 45 6 14 12 34 15 45
2 11 25 79 50 150 26 72 48 135 49 140 1 6 10 27 19 49 9 21 17 40 17 42 0 1
5 15 12 31 7 15 13 33 13 38 1 6 9 27 19 47 9 21 17 41 17 45 1 5 8 17 15 28
8 11 14 27 14 37 0 10 5 18 10 18 6 0 9 4 8 8 -4 11 104 245 117 254 5 4 7 8
2 8 -4 0 0 11 9 25 9 14 12 25 8 25 -5 0 -4 4 2 8 7 4 26 36 44 72 50 102 84
164 93 171 5 3 8 8 7 10 -4 8 24 59 32 59 4 0 8 9 8 20 0 11 3 20 8 20 4 0 16
17 27 38 54 103 309 493 327 500 4 2 8 10 8 18 0 8 7 17 15 20 8 4 15 11 15
18 0 6 13 26 30 44 16 18 29 35 29 38 0 3 11 19 26 37 14 18 48 61 77 97 51
65 174 215 193 236 5 6 35 39 65 74 128 147 513 523 650 636 19 16 40 34 45
39 6 6 33 29 60 50 28 22 55 46 62 55 7 8 13 12 13 8 0 -3 18 9 39 29 22 19
42 34 45 34 3 -1 14 7 24 17 25 22 46 39 112 87 30 22 57 43 58 47 2 5 10 8
18 8 8 0 17 7 20 15 4 8 12 15 18 15 7 0 22 9 34 20 12 11 24 20 27 20 3 0 36
23 75 50 39 28 72 50 74 50 3 0 33 19 68 42 35 24 65 43 68 43 3 1 30 16 60
35 30 19 56 33 58 30 2 -3 8 3 13 13 6 9 17 17 24 17 8 0 15 5 15 12 0 6 3 8
7 5 3 -4 11 -3 17 2 6 5 47 28 91 51 44 24 88 50 99 59 10 9 19 14 20 12 2 -5
121 53 124 62 2 4 8 7 13 7 4 0 52 21 105 46 118 56 147 68 157 66 4 -1 7 2 7
8 0 6 3 9 8 8 4 -1 25 6 47 16 40 17 322 130 355 141 3 1 14 5 25 9 75 29 93
34 99 29 3 -4 6 0 6 7 0 7 3 11 6 7 4 -3 23 1 43 9 20 9 43 17 51 19 8 2 26 8
40 13 14 5 30 11 35 12 6 1 15 4 20 6 25 9 184 53 215 59 19 4 40 10 45 13 11
7 15 8 60 17 17 3 40 7 52 10 13 3 26 6 30 6 5 1 15 5 24 9 9 5 38 12 65 16
27 3 56 9 64 13 8 4 22 7 30 6 8 -1 22 2 30 6 9 4 34 10 56 13 22 4 50 9 62
11 49 11 59 13 105 19 27 4 59 9 70 12 12 2 41 6 64 8 24 3 46 7 50 9 5 3 39
8 76 12 37 3 77 8 88 10 11 2 47 6 82 9 34 4 85 8 112 11 91 10 178 15 360 21
99 3 181 7 182 7 2 2 152 -1 328 -7z"/>
<path d="M9035 15801 c-2 -2 -36 -5 -75 -7 -39 -2 -89 -6 -113 -9 -23 -3 -64
-7 -92 -9 -27 -2 -50 -5 -50 -6 0 -1 -27 -4 -60 -6 -33 -2 -67 -5 -75 -6 -8 0
-18 -6 -22 -12 -5 -8 -8 -7 -8 2 0 9 -5 10 -17 4 -10 -5 -26 -8 -35 -7 -10 2
-18 0 -18 -3 0 -4 -12 -7 -27 -8 -37 -1 -136 -15 -144 -20 -4 -2 -22 -6 -40
-9 -19 -2 -45 -7 -59 -10 -14 -3 -39 -7 -56 -9 -16 -1 -34 -5 -40 -8 -5 -3
-26 -9 -48 -12 -21 -4 -42 -8 -46 -11 -5 -3 -21 -7 -37 -9 -49 -8 -167 -35
-193 -46 -14 -5 -36 -12 -50 -14 -14 -3 -41 -10 -60 -16 -19 -6 -42 -13 -50
-15 -52 -12 -270 -82 -346 -111 -51 -19 -95 -34 -99 -34 -4 0 -21 -6 -38 -14
-18 -7 -48 -19 -67 -26 -19 -7 -59 -24 -88 -37 -29 -12 -56 -23 -59 -23 -4 0
-25 -9 -47 -19 -23 -11 -63 -29 -91 -41 -101 -45 -381 -184 -397 -198 -10 -8
-18 -12 -18 -8 0 6 -48 -21 -60 -34 -3 -3 -27 -16 -55 -30 -27 -13 -52 -27
-55 -30 -7 -7 -39 -26 -87 -51 -24 -13 -43 -27 -43 -32 0 -6 -3 -8 -6 -4 -5 4
-96 -51 -150 -90 -23 -17 -50 -34 -72 -43 -12 -5 -25 -17 -28 -25 -4 -8 -12
-15 -19 -15 -8 0 -20 -6 -27 -12 -25 -24 -77 -58 -88 -58 -5 0 -10 -3 -10 -7
0 -5 -17 -19 -37 -33 -41 -27 -76 -55 -105 -82 -10 -10 -21 -18 -24 -17 -5 1
-76 -54 -101 -79 -7 -7 -13 -11 -13 -9 0 6 -65 -49 -97 -82 -13 -13 -23 -21
-23 -18 0 3 -11 -4 -23 -16 -64 -60 -117 -107 -117 -103 0 3 -34 -28 -75 -69
-41 -41 -75 -73 -75 -71 0 2 -53 -51 -117 -117 -65 -65 -137 -139 -160 -162
-24 -24 -43 -45 -43 -48 0 -3 -21 -28 -47 -55 -27 -27 -61 -66 -78 -87 -16
-21 -42 -50 -57 -66 -15 -16 -24 -29 -21 -29 4 0 0 -6 -9 -12 -8 -7 -44 -49
-78 -93 -34 -44 -68 -83 -74 -87 -6 -4 -7 -8 -3 -8 4 0 -4 -12 -18 -27 -14
-15 -25 -31 -25 -35 0 -5 -8 -16 -17 -26 -10 -10 -49 -65 -88 -122 -38 -58
-73 -107 -76 -110 -10 -9 -159 -246 -209 -335 -9 -16 -40 -70 -69 -120 -49
-86 -197 -379 -239 -475 -43 -97 -101 -238 -125 -300 -14 -36 -31 -78 -37 -95
-7 -16 -14 -34 -16 -40 -1 -5 -16 -49 -32 -97 -16 -48 -27 -89 -24 -92 3 -3 1
-6 -5 -6 -6 0 -14 -17 -18 -37 -4 -21 -10 -42 -13 -48 -4 -5 -7 -14 -9 -20 -8
-36 -12 -53 -21 -76 -6 -15 -8 -30 -5 -33 4 -3 2 -6 -4 -6 -5 0 -10 -6 -10
-12 0 -7 -6 -33 -13 -58 -7 -25 -14 -52 -16 -60 -4 -16 -23 -87 -28 -105 -2
-10 -25 -114 -31 -145 -2 -8 -4 -15 -5 -15 -3 0 -10 -39 -13 -67 -1 -16 -4
-28 -7 -28 -4 0 -7 -10 -7 -22 -1 -13 -4 -34 -7 -48 -3 -14 -8 -41 -11 -60 -3
-19 -8 -42 -11 -50 -4 -8 -6 -26 -5 -39 2 -13 -3 -28 -11 -32 -10 -7 -10 -9 0
-9 9 0 10 -5 3 -17 -5 -10 -9 -21 -10 -25 -1 -5 -1 -9 -1 -10 -1 -4 -11 -109
-12 -125 -1 -7 -4 -13 -7 -13 -3 0 -6 -21 -7 -48 0 -26 -4 -72 -8 -102 -4 -30
-9 -77 -11 -105 -2 -27 -6 -86 -10 -130 -20 -259 -20 -726 0 -935 3 -30 7 -80
9 -110 2 -30 8 -84 12 -120 4 -36 8 -83 8 -105 1 -22 4 -42 7 -45 5 -5 31
-176 32 -217 1 -13 4 -23 7 -23 3 0 7 -15 9 -32 4 -43 9 -83 11 -83 1 0 6 -26
13 -75 2 -8 6 -21 10 -27 5 -7 6 -13 3 -13 -2 0 0 -15 5 -32 5 -18 12 -49 15
-68 8 -45 12 -64 14 -67 3 -4 3 -3 20 -78 16 -72 17 -73 20 -82 2 -5 4 -12 5
-18 2 -5 4 -13 5 -17 1 -5 4 -12 5 -18 1 -5 3 -11 5 -12 3 -5 11 -42 12 -58 0
-8 4 -19 8 -25 4 -5 11 -23 15 -40 5 -16 10 -34 11 -40 2 -5 5 -17 6 -25 2 -8
6 -19 9 -25 3 -5 12 -32 19 -60 7 -27 16 -54 20 -60 4 -5 11 -23 15 -40 12
-43 12 -43 37 -115 12 -36 25 -67 29 -70 3 -3 11 -26 19 -52 7 -27 17 -48 21
-48 5 0 9 -9 9 -20 0 -11 9 -37 20 -57 11 -21 20 -46 20 -55 0 -10 5 -18 10
-18 6 0 10 -6 10 -14 0 -38 211 -461 336 -676 109 -185 99 -170 167 -272 31
-48 57 -90 57 -93 0 -3 8 -15 18 -26 11 -10 25 -32 33 -47 8 -15 19 -31 25
-37 19 -19 64 -84 64 -93 0 -6 4 -12 8 -14 4 -1 37 -41 71 -88 35 -47 68 -87
72 -88 5 -2 9 -8 9 -13 0 -6 10 -21 23 -34 12 -13 33 -39 47 -56 21 -28 68
-83 105 -125 6 -6 35 -40 65 -74 169 -193 451 -470 637 -625 13 -11 37 -31 53
-45 15 -14 40 -34 56 -45 15 -11 45 -37 68 -57 22 -21 42 -36 44 -34 2 3 20
-11 40 -30 20 -19 39 -34 43 -34 3 0 15 -8 27 -18 53 -44 63 -52 68 -52 3 0
23 -13 43 -29 42 -33 338 -231 345 -231 3 0 25 -13 49 -30 25 -16 50 -30 56
-30 6 0 11 -3 11 -7 0 -5 10 -13 23 -19 37 -18 92 -49 97 -54 13 -14 381 -200
395 -200 7 0 15 -4 17 -8 2 -4 32 -20 68 -36 36 -16 85 -38 110 -49 25 -11 50
-22 55 -23 6 -1 30 -11 55 -22 107 -48 546 -205 610 -217 9 -2 41 -11 71 -20
30 -9 65 -18 78 -20 13 -2 27 -7 30 -12 3 -4 22 -9 41 -11 19 -1 42 -5 50 -9
8 -3 29 -8 45 -10 17 -3 32 -9 33 -14 2 -5 8 -7 12 -4 5 3 37 -2 72 -10 34 -9
70 -17 80 -18 10 -1 18 -4 18 -7 0 -3 10 -5 23 -6 12 0 36 -3 52 -6 17 -4 48
-9 70 -13 65 -11 80 -13 80 -15 0 -1 20 -4 44 -6 23 -2 52 -9 62 -15 13 -7 19
-6 19 1 0 6 5 8 12 4 13 -8 24 -10 98 -18 25 -3 45 -5 45 -6 0 -3 48 -9 120
-15 39 -3 86 -7 105 -9 19 -2 76 -7 125 -10 50 -3 100 -8 113 -10 12 -3 22 0
22 6 0 7 4 7 13 0 21 -18 712 -7 877 13 25 3 65 8 90 10 72 6 143 14 175 19
107 17 133 20 163 21 17 0 32 4 32 9 0 4 7 6 15 2 8 -3 15 -2 15 2 0 4 10 7
23 8 21 0 70 8 112 17 11 2 36 7 55 11 19 3 46 8 60 11 14 3 39 8 55 11 17 3
35 7 40 8 6 2 24 6 40 10 17 4 37 10 45 13 8 3 24 7 35 8 42 6 199 50 390 108
149 46 403 138 491 177 23 11 54 22 68 26 14 3 29 10 32 15 3 5 10 7 15 4 5
-4 9 -1 9 4 0 6 5 11 11 11 10 0 38 12 167 71 35 16 67 29 72 29 5 0 10 3 12
8 2 4 54 32 116 62 61 30 112 58 112 62 0 4 3 7 8 6 10 -3 75 32 84 46 4 6 8
7 8 2 0 -5 9 -1 19 8 11 10 25 15 30 11 6 -3 11 -2 11 3 0 4 35 28 78 52 42
24 79 47 82 51 3 3 31 21 62 38 31 18 62 38 68 46 7 8 16 12 21 9 5 -3 9 -1 9
3 0 5 22 22 50 38 27 17 50 33 50 38 0 4 5 7 10 7 6 0 16 4 23 10 29 24 178
130 182 130 5 0 45 33 71 58 8 7 14 10 14 5 0 -4 6 -1 13 7 7 8 32 31 57 50
25 19 61 48 81 65 19 16 57 48 84 70 197 162 523 483 700 689 28 32 59 69 70
81 11 13 34 40 50 61 17 20 40 48 53 61 12 13 22 27 22 32 0 4 11 18 25 31 14
13 25 27 25 32 0 5 11 19 25 32 13 13 23 25 20 28 -3 2 6 15 20 28 14 13 25
29 25 37 0 7 3 13 8 13 4 0 18 17 32 37 14 20 30 42 37 49 7 6 14 18 15 25 2
7 10 20 18 30 8 10 20 24 25 31 18 23 190 292 190 298 1 3 12 23 26 45 87 135
339 629 339 664 0 6 5 11 10 11 6 0 10 8 10 18 0 10 6 26 14 37 7 11 15 25 16
30 4 17 12 39 30 80 10 22 26 63 36 90 10 28 23 53 28 57 6 4 8 8 4 8 -7 0 30
113 59 178 8 18 16 41 18 51 2 10 11 41 21 67 9 27 17 56 18 64 1 9 5 21 10
28 4 6 9 20 11 29 2 10 11 43 20 73 9 30 18 66 21 79 3 13 9 32 15 43 5 10 8
18 5 18 -3 0 1 20 8 44 8 25 11 47 8 50 -3 4 -1 6 4 6 5 0 10 8 10 18 1 9 11
59 23 110 12 51 23 103 25 115 3 12 5 22 6 22 1 0 3 14 5 30 1 17 3 30 4 30 4
0 7 19 27 144 3 18 8 43 10 55 2 11 7 39 10 61 2 22 7 51 9 65 5 29 16 122 20
165 2 17 4 30 5 30 0 0 3 23 5 50 14 158 16 197 20 270 2 44 5 80 6 80 1 0 2
136 3 303 0 166 -1 302 -4 302 -3 0 -6 37 -6 83 -1 45 -5 114 -9 152 -4 39 -8
89 -8 113 -1 23 -4 42 -7 42 -3 0 -6 15 -6 33 -3 64 -19 192 -24 192 -1 0 -2
19 -3 43 0 23 -4 42 -7 42 -3 0 -6 8 -7 18 -1 25 -11 93 -17 122 -3 13 -7 39
-8 57 -1 18 -5 33 -8 33 -3 0 -6 10 -7 23 -1 12 -4 33 -7 47 -3 14 -8 36 -11
50 -3 14 -8 36 -11 50 -4 14 -7 35 -8 48 0 12 -5 22 -10 22 -4 0 -6 7 -3 15 4
8 2 17 -3 20 -5 3 -7 14 -5 25 2 11 0 20 -5 20 -5 0 -7 9 -5 20 2 11 0 20 -4
20 -8 0 -9 7 -12 55 -1 14 -5 25 -10 25 -5 0 -9 13 -9 29 0 17 -5 33 -11 36
-5 4 -8 12 -6 18 2 7 0 20 -5 30 -5 10 -11 26 -13 35 -2 9 -8 31 -14 49 -5 17
-7 34 -3 37 3 3 0 6 -7 6 -6 0 -11 6 -10 13 1 6 0 19 -4 27 -13 33 -49 143
-51 154 -1 6 -4 16 -7 21 -6 9 -31 81 -34 95 -1 3 -9 23 -19 45 -9 22 -18 48
-19 58 -1 9 -5 17 -9 17 -4 0 -8 7 -8 15 0 8 -9 35 -20 60 -11 25 -29 65 -40
90 -11 25 -20 47 -20 50 0 2 -14 33 -30 67 -17 34 -30 67 -30 75 0 7 -5 13
-11 13 -5 0 -7 5 -4 10 3 6 1 10 -4 10 -6 0 -11 6 -11 14 0 11 -110 235 -140
286 -5 8 -42 74 -81 145 -40 72 -75 132 -78 135 -10 8 -42 64 -48 83 -3 9 -9
17 -14 17 -5 0 -9 5 -9 10 0 11 -59 103 -87 136 -10 11 -19 27 -21 35 -2 7
-11 23 -21 34 -9 11 -30 40 -46 65 -17 25 -32 47 -35 50 -3 3 -37 48 -75 100
-38 52 -75 102 -82 110 -52 61 -73 88 -73 93 0 4 -15 21 -32 39 -18 19 -44 49
-58 67 -14 19 -38 48 -55 66 -16 17 -51 56 -78 87 -62 73 -382 394 -476 478
-41 36 -85 75 -99 88 -14 13 -41 35 -60 50 -19 15 -40 32 -46 37 -6 6 -36 30
-66 54 -30 25 -61 51 -67 60 -7 8 -13 11 -13 6 0 -4 -8 2 -19 13 -10 12 -22
22 -28 22 -5 0 -29 18 -53 39 -25 22 -56 46 -70 53 -24 13 -38 23 -82 61 -12
9 -25 17 -29 17 -4 0 -14 6 -21 13 -7 6 -33 26 -58 42 -25 17 -47 33 -48 38
-2 4 -8 5 -13 1 -5 -3 -9 0 -9 5 0 6 -6 11 -14 11 -8 0 -16 4 -18 8 -1 4 -39
30 -83 58 -106 66 -106 66 -156 93 -24 13 -52 30 -61 39 -10 8 -18 12 -18 8 0
-4 -13 2 -29 13 -16 12 -34 21 -39 21 -6 0 -12 3 -14 8 -1 4 -25 18 -53 31
-27 14 -58 32 -67 40 -10 8 -18 11 -18 7 0 -4 -13 2 -29 13 -16 12 -36 21 -44
21 -8 0 -20 6 -26 14 -7 8 -26 18 -42 21 -16 4 -29 11 -29 16 0 5 -6 9 -12 9
-7 0 -51 19 -98 41 -47 23 -89 42 -95 44 -5 1 -32 12 -60 24 -66 30 -253 103
-335 131 -36 12 -74 26 -85 31 -30 13 -234 77 -332 105 -108 30 -89 26 -263
68 -157 38 -200 47 -280 60 -14 3 -35 7 -46 9 -12 3 -39 8 -60 12 -22 3 -52 8
-69 11 -49 9 -87 14 -140 20 -53 5 -90 11 -90 14 0 1 -20 3 -45 5 -25 2 -45 4
-45 5 0 1 -20 3 -45 5 -25 1 -45 3 -45 4 0 2 -35 5 -200 16 -27 1 -50 4 -50 5
0 1 -148 4 -329 6 -228 2 -334 0 -343 -8 -7 -6 -13 -7 -13 -2 0 9 -68 13 -75
5z m790 -254 c36 -4 158 -15 255 -23 19 -1 35 -3 35 -4 0 -2 102 -13 133 -14
12 -1 22 -3 22 -6 0 -3 12 -6 28 -6 26 -1 75 -8 137 -19 17 -3 41 -7 55 -9 14
-3 25 -5 25 -6 0 -1 16 -3 35 -6 43 -6 75 -12 75 -15 0 -1 9 -3 20 -5 49 -7
80 -13 83 -13 1 -1 3 -1 5 -1 1 -1 20 -5 42 -11 22 -5 47 -11 56 -13 8 -2 44
-11 80 -20 35 -9 73 -18 84 -20 11 -3 54 -14 95 -26 71 -21 85 -25 102 -29 20
-5 333 -113 403 -139 110 -41 322 -131 430 -183 50 -24 92 -44 95 -45 3 -1 15
-5 28 -9 12 -4 22 -12 22 -17 0 -5 5 -6 10 -3 6 3 10 1 10 -4 0 -6 9 -11 20
-11 11 0 20 -3 20 -8 0 -4 17 -15 38 -25 20 -9 73 -37 117 -62 44 -25 91 -51
105 -57 14 -7 31 -18 38 -25 7 -7 18 -13 23 -13 5 0 22 -8 37 -19 67 -46 167
-106 174 -104 4 2 8 -1 8 -6 0 -8 56 -47 85 -60 5 -2 17 -12 27 -21 10 -9 31
-23 46 -31 15 -7 37 -24 50 -37 12 -13 26 -21 31 -18 5 3 11 0 14 -7 3 -7 32
-31 66 -53 33 -21 60 -45 61 -52 0 -7 4 -11 8 -8 5 3 23 -8 41 -24 18 -17 35
-30 39 -30 4 0 14 -9 22 -20 8 -11 20 -20 26 -20 7 0 14 -3 16 -7 2 -5 23 -24
48 -44 25 -20 56 -47 71 -60 14 -13 51 -46 83 -74 33 -27 82 -72 110 -99 113
-108 233 -226 231 -226 -1 0 30 -34 69 -75 122 -128 226 -248 321 -370 17 -21
48 -61 71 -89 22 -28 51 -67 64 -86 14 -19 32 -44 42 -54 10 -11 18 -23 18
-27 0 -4 6 -14 13 -21 7 -7 35 -46 62 -86 28 -41 60 -88 72 -105 12 -18 22
-38 22 -44 1 -7 4 -13 9 -13 7 0 42 -56 41 -67 0 -3 3 -9 8 -12 8 -6 93 -138
93 -145 0 -2 23 -43 51 -92 41 -71 231 -451 269 -539 11 -24 79 -191 90 -220
4 -11 12 -31 18 -45 19 -46 70 -193 112 -325 23 -71 44 -137 47 -145 4 -8 6
-18 5 -22 -1 -4 3 -20 9 -35 12 -30 19 -57 24 -88 2 -11 4 -21 4 -22 1 -2 1
-5 1 -8 0 -3 6 -21 14 -40 8 -19 13 -35 11 -35 -2 0 1 -15 6 -32 5 -18 12 -44
14 -58 6 -34 13 -65 15 -65 2 0 6 -21 14 -67 3 -21 10 -57 15 -80 18 -80 22
-101 36 -198 2 -14 4 -25 5 -25 1 0 3 -13 5 -30 2 -16 7 -55 11 -85 4 -30 7
-65 7 -77 1 -13 4 -23 7 -23 3 0 5 -14 4 -30 -1 -17 3 -33 8 -36 6 -4 6 -9 -2
-14 -8 -5 -9 -13 -4 -21 5 -8 10 -32 11 -54 1 -22 5 -67 8 -100 2 -33 7 -107
10 -165 3 -58 7 -116 8 -130 1 -14 -2 -31 -7 -37 -5 -8 -5 -13 1 -13 10 0 9
-377 -2 -402 -4 -11 -3 -18 5 -18 6 0 8 -5 3 -12 -4 -7 -8 -40 -8 -73 -1 -34
-5 -66 -9 -73 -4 -7 -2 -12 6 -12 8 0 9 -3 2 -8 -5 -4 -10 -23 -9 -42 0 -19
-3 -45 -7 -57 -5 -16 -4 -23 5 -23 7 0 8 -3 2 -8 -5 -4 -11 -18 -12 -32 -3
-48 -12 -135 -13 -135 -1 0 -3 -16 -5 -35 -2 -19 -7 -53 -10 -75 -3 -22 -7
-55 -8 -72 -1 -18 -6 -33 -12 -33 -5 0 -3 -5 5 -10 10 -6 11 -10 3 -10 -7 0
-12 -10 -12 -22 0 -21 -4 -55 -17 -118 -6 -27 -12 -61 -18 -100 -3 -14 -5 -25
-6 -25 -1 0 -3 -7 -5 -15 -2 -8 -6 -26 -9 -40 -3 -14 -8 -38 -11 -55 -4 -26
-14 -68 -20 -85 -1 -3 -5 -23 -10 -45 -5 -22 -10 -43 -11 -47 -1 -5 -3 -9 -4
-10 -1 -2 -4 -12 -5 -23 -9 -60 -164 -547 -201 -630 -7 -16 -27 -66 -45 -110
-17 -44 -36 -91 -42 -105 -6 -14 -11 -27 -12 -30 -19 -55 -175 -376 -236 -487
-66 -120 -77 -140 -123 -216 -25 -43 -46 -83 -46 -88 0 -5 -4 -9 -9 -9 -5 0
-14 -14 -21 -30 -7 -16 -16 -30 -21 -30 -5 0 -9 -5 -9 -11 0 -12 -202 -312
-232 -343 -10 -11 -18 -23 -18 -26 0 -4 -8 -16 -17 -27 -41 -47 -71 -88 -70
-94 1 -3 -14 -20 -33 -37 -19 -18 -31 -32 -26 -32 5 0 -3 -11 -18 -25 -14 -13
-26 -26 -26 -29 0 -5 -32 -43 -87 -102 -24 -25 -43 -48 -43 -52 0 -4 -12 -18
-25 -31 -14 -13 -25 -27 -25 -33 0 -5 -4 -6 -10 -3 -5 3 -10 2 -10 -4 0 -5
-33 -44 -73 -85 -41 -42 -72 -78 -70 -80 3 -2 -5 -7 -16 -11 -12 -3 -21 -10
-21 -15 0 -11 -70 -80 -82 -80 -5 0 -6 -4 -3 -10 3 -5 2 -10 -3 -10 -5 0 -39
-29 -75 -64 -35 -36 -67 -62 -71 -59 -3 4 -6 -2 -6 -12 0 -10 -2 -16 -5 -13
-3 3 -21 -9 -39 -26 -18 -17 -57 -51 -86 -76 -29 -25 -59 -50 -65 -57 -7 -7
-15 -9 -19 -6 -3 4 -6 -1 -6 -10 0 -10 -6 -17 -14 -17 -8 0 -17 -7 -20 -16 -4
-9 -9 -14 -12 -11 -3 2 -15 -5 -28 -17 -26 -25 -73 -61 -176 -137 -30 -23 -57
-44 -60 -48 -3 -3 -12 -10 -22 -16 -45 -27 -157 -105 -172 -120 -9 -9 -16 -14
-16 -11 0 5 -122 -73 -147 -94 -7 -5 -17 -10 -23 -10 -5 0 -19 -9 -30 -20 -11
-11 -20 -18 -20 -15 0 3 -25 -10 -55 -30 -31 -19 -60 -35 -65 -35 -6 0 -10 -4
-10 -9 0 -5 -13 -12 -30 -16 -16 -4 -30 -10 -30 -14 0 -8 -67 -43 -74 -38 -2
1 -12 -5 -22 -14 -11 -9 -64 -38 -119 -65 -55 -27 -102 -52 -105 -55 -3 -3
-22 -12 -42 -18 -21 -7 -40 -17 -43 -22 -4 -5 -15 -9 -26 -9 -10 0 -19 -3 -19
-8 0 -4 -15 -12 -32 -18 -18 -7 -105 -42 -193 -79 -144 -60 -565 -209 -565
-200 0 2 -15 -2 -34 -10 -18 -8 -44 -16 -57 -19 -13 -2 -71 -16 -128 -31 -57
-14 -112 -27 -122 -28 -11 -1 -19 -5 -19 -10 0 -5 -8 -7 -19 -4 -10 2 -25 0
-34 -5 -9 -5 -35 -11 -57 -13 -22 -2 -46 -7 -52 -11 -5 -4 -29 -8 -52 -10 -22
-1 -42 -4 -43 -5 -2 -1 -6 -2 -10 -3 -5 -1 -12 -4 -18 -7 -5 -3 -22 -5 -37 -4
-16 1 -28 -1 -28 -5 0 -3 -12 -7 -27 -7 -16 0 -46 -4 -68 -9 -22 -4 -55 -8
-72 -8 -18 -1 -33 -3 -33 -6 0 -3 -21 -6 -47 -8 -26 -2 -53 -8 -60 -14 -9 -7
-13 -7 -13 1 0 7 -4 9 -10 6 -5 -3 -35 -8 -67 -11 -32 -2 -76 -6 -98 -9 -270
-28 -882 -27 -1125 1 -25 3 -63 7 -85 8 -22 2 -40 4 -40 5 0 2 -16 4 -35 6
-19 1 -62 6 -95 10 -33 4 -68 8 -77 9 -10 0 -18 3 -18 6 0 3 -12 5 -27 4 -16
-1 -32 1 -38 4 -5 3 -25 7 -45 9 -34 2 -75 10 -75 13 0 2 -32 7 -72 11 -18 2
-33 6 -33 9 0 3 -10 6 -22 7 -13 0 -36 4 -53 7 -16 4 -39 9 -50 11 -11 2 -67
15 -125 30 -134 33 -143 36 -155 39 -5 2 -23 6 -40 11 -202 52 -599 194 -834
298 -142 62 -477 232 -571 289 -19 11 -55 32 -80 46 -25 13 -52 31 -61 38 -8
8 -19 14 -23 14 -4 0 -27 14 -51 30 -24 16 -46 30 -50 30 -5 0 -18 9 -48 36
-7 6 -22 14 -34 18 -11 4 -28 15 -38 26 -10 11 -25 20 -33 20 -9 0 -12 3 -9 6
4 4 -10 15 -29 26 -20 11 -41 24 -48 29 -6 5 -36 28 -66 50 -91 67 -113 83
-126 97 -7 6 -17 12 -22 12 -6 0 -12 3 -14 8 -1 4 -25 25 -53 47 -54 44 -75
61 -105 88 -11 9 -22 17 -25 17 -2 0 -14 10 -27 23 -13 12 -55 49 -93 82 -90
78 -432 418 -515 514 -87 99 -90 103 -125 146 -16 20 -35 42 -40 49 -6 6 -28
34 -50 61 -22 28 -42 52 -45 55 -21 21 -70 91 -70 100 0 6 -4 8 -10 5 -6 -3
-10 1 -10 9 0 8 -6 21 -13 28 -7 7 -26 31 -42 53 -17 22 -32 42 -35 45 -3 3
-11 17 -19 33 -8 15 -18 27 -23 27 -4 0 -8 7 -8 15 0 8 -4 15 -9 15 -5 0 -14
14 -21 30 -7 17 -16 30 -21 30 -5 0 -9 7 -9 15 0 8 -4 15 -10 15 -5 0 -10 5
-10 11 0 6 -17 36 -39 67 -52 77 -101 160 -101 172 0 6 -3 10 -7 10 -5 0 -13
10 -19 23 -6 12 -26 49 -44 82 -77 141 -101 186 -155 295 -31 63 -73 151 -92
195 -19 44 -42 98 -53 120 -10 22 -30 70 -44 108 -14 37 -37 95 -50 130 -47
119 -86 239 -81 247 3 5 2 10 -3 12 -11 4 -62 169 -56 180 3 4 0 8 -7 8 -7 0
-9 3 -6 6 3 4 2 14 -3 24 -5 9 -11 28 -14 41 -3 13 -8 35 -12 49 -3 14 -8 40
-11 58 -3 17 -10 32 -16 32 -6 0 -8 2 -5 6 3 3 2 22 -3 42 -6 20 -12 48 -14
62 -3 14 -8 36 -12 50 -9 34 -10 40 -17 80 -13 68 -15 75 -21 100 -7 32 -16
87 -20 125 -2 17 -4 30 -5 30 -5 0 -31 187 -33 238 0 15 -3 27 -6 27 -3 0 -7
19 -8 43 0 23 -4 69 -7 102 -12 117 -17 191 -20 258 -2 37 -6 70 -9 74 -4 3
-2 13 3 23 5 10 7 20 4 22 -9 10 -12 78 -3 78 6 0 6 7 1 18 -8 16 -7 339 1
395 2 15 0 27 -7 27 -7 0 -7 3 -1 8 6 4 10 25 11 47 1 39 12 183 19 255 14
134 20 185 30 255 12 84 17 121 18 143 1 12 3 22 7 22 3 0 6 17 8 37 1 20 4
46 7 57 2 12 7 33 10 49 6 35 14 71 20 100 2 12 7 36 10 52 14 70 17 82 30
127 7 25 11 49 8 52 -4 3 -1 6 4 6 6 0 10 8 8 18 -1 9 0 22 4 27 3 6 7 16 8
23 2 6 5 18 6 25 2 6 7 29 12 50 4 20 11 37 16 37 5 0 6 6 3 13 -3 8 1 27 7
43 7 16 13 34 14 40 2 6 11 38 21 70 9 33 19 64 20 69 9 32 76 223 84 240 5
11 24 56 41 100 17 44 36 91 42 105 5 14 11 30 12 35 4 16 118 262 172 370 49
97 78 152 142 265 18 30 37 67 44 83 6 15 15 27 19 27 4 0 8 4 8 10 0 9 45 85
77 129 10 13 18 27 18 30 0 9 67 105 79 113 6 4 7 8 3 8 -5 0 6 18 23 40 17
22 29 40 26 40 -3 0 2 8 11 18 22 23 83 110 82 118 0 3 11 16 26 30 14 13 22
24 18 24 -4 0 -3 4 3 8 5 4 23 25 39 47 17 22 32 42 35 45 3 3 43 52 89 110
46 58 93 115 105 126 12 12 43 48 71 80 59 71 440 450 515 514 29 25 63 55 76
68 13 13 24 21 24 18 0 -3 16 10 35 30 19 19 35 31 35 27 0 -4 8 2 18 13 10
10 33 30 51 44 18 14 42 34 52 44 10 11 19 17 19 13 0 -3 17 10 38 28 20 19
42 35 49 35 6 0 13 4 15 8 2 4 24 23 51 42 26 18 47 37 47 42 0 4 6 8 13 8 12
0 26 9 74 50 7 5 14 10 17 10 3 0 26 15 51 33 26 17 55 37 65 42 10 6 25 17
34 24 9 7 16 10 16 7 0 -4 6 -2 13 4 45 38 61 50 68 50 4 0 27 13 51 29 24 16
68 42 98 57 30 16 57 31 60 34 14 14 397 208 500 253 19 8 55 24 80 35 46 21
231 95 285 114 17 6 44 17 60 24 39 16 245 83 273 89 12 2 26 6 31 9 11 7 298
87 328 91 11 2 30 6 41 9 11 4 31 9 44 12 13 2 34 7 48 10 14 3 34 7 45 9 22
4 65 13 105 21 14 3 34 7 45 9 11 2 31 6 45 9 56 11 124 21 210 31 19 2 46 7
60 10 14 3 43 8 65 9 22 2 67 7 100 11 79 9 139 14 260 21 55 3 101 7 103 9 5
4 662 -3 707 -8z"/>
<path d="M8137 14904 c-2 -1 -154 -15 -199 -17 -10 -1 -18 -4 -18 -7 0 -3 -17
-6 -38 -6 -21 0 -42 -3 -48 -7 -6 -3 -26 -9 -45 -12 -83 -14 -291 -92 -341
-126 -14 -11 -33 -19 -41 -19 -8 0 -17 -7 -21 -15 -3 -8 -10 -15 -16 -15 -12
0 -97 -68 -140 -111 -63 -65 -105 -123 -137 -189 -37 -80 -42 -95 -64 -206 -9
-48 -6 -191 5 -239 21 -92 40 -155 47 -155 5 0 9 -6 9 -14 0 -34 73 -141 145
-212 67 -66 185 -145 240 -161 6 -1 35 -10 65 -18 61 -18 102 -24 173 -29 42
-2 80 2 197 19 27 4 239 18 255 16 6 0 42 -2 80 -5 39 -2 99 -9 135 -16 36 -7
74 -14 85 -15 76 -12 266 -96 315 -140 11 -10 20 -15 20 -10 0 4 41 -33 90
-82 50 -50 90 -95 90 -100 0 -6 7 -16 15 -23 50 -42 154 -297 179 -440 3 -19
8 -44 10 -55 10 -51 18 -126 22 -190 2 -38 4 -72 4 -75 4 -14 -2 -194 -6 -202
-3 -4 1 -8 8 -8 8 0 9 -3 3 -8 -5 -4 -10 -29 -11 -57 -1 -47 -8 -122 -19 -205
-3 -19 -8 -55 -11 -79 -3 -24 -10 -67 -15 -95 -6 -28 -12 -62 -14 -76 -6 -42
-14 -80 -46 -210 -17 -69 -32 -134 -35 -146 -2 -11 -13 -50 -25 -85 -20 -62
-24 -78 -33 -119 -7 -31 -12 -35 -48 -38 -18 -2 -58 -9 -88 -16 -30 -8 -80
-17 -110 -21 -67 -8 -159 -18 -182 -19 -10 0 -18 -3 -18 -6 0 -3 -14 -5 -32
-4 -18 0 -48 -3 -68 -7 -19 -4 -51 -10 -70 -13 -19 -3 -69 -12 -110 -21 -41
-9 -86 -19 -100 -21 -14 -3 -90 -26 -170 -51 -80 -26 -148 -48 -152 -49 -5 -1
-11 -3 -15 -4 -5 -1 -11 -2 -15 -1 -5 0 -8 -4 -8 -10 0 -5 -4 -7 -10 -4 -5 3
-10 2 -10 -3 0 -5 -6 -9 -14 -9 -16 0 -158 -68 -198 -95 -50 -34 -216 -117
-222 -111 -3 4 -6 1 -6 -5 0 -7 -7 -12 -15 -12 -8 0 -23 -4 -33 -9 -25 -14
-56 -24 -64 -23 -5 1 -8 -3 -8 -9 0 -6 -7 -9 -15 -5 -8 3 -15 2 -15 -2 0 -9
-109 -47 -122 -44 -5 1 -8 -3 -8 -10 0 -6 -3 -9 -6 -5 -4 3 -22 0 -42 -8 -49
-21 -79 -25 -79 -12 0 7 -4 26 -7 42 -4 17 -9 41 -11 55 -4 29 -12 67 -26 130
-6 25 -12 58 -14 73 -3 16 -14 74 -26 130 -12 56 -23 113 -25 127 -3 31 -13
79 -20 101 -2 9 -7 34 -10 55 -2 22 -7 47 -10 56 -6 20 -12 50 -20 102 -3 22
-7 43 -10 47 -2 3 -6 21 -8 40 -5 30 -13 73 -20 104 -2 6 -7 33 -11 60 -5 28
-10 52 -10 55 -3 10 -16 75 -20 95 -2 11 -4 20 -5 20 -1 0 -3 14 -5 30 -2 17
-7 41 -11 55 -3 14 -8 36 -10 50 -2 14 -9 45 -14 70 -5 25 -12 59 -14 75 -3
17 -7 41 -10 55 -3 13 -13 64 -21 113 -9 49 -18 93 -20 97 -3 4 12 25 33 47
52 56 97 107 96 113 0 3 10 14 21 25 11 11 25 27 30 36 6 9 23 36 39 60 37 55
95 169 102 200 4 13 8 51 11 85 5 53 2 66 -21 102 -57 91 -193 112 -257 40 -9
-10 -21 -18 -28 -18 -6 0 -11 -3 -11 -8 0 -4 -11 -19 -24 -34 -14 -14 -40 -50
-57 -79 -18 -30 -38 -57 -43 -61 -6 -4 -7 -8 -3 -8 5 0 0 -15 -11 -32 -18 -30
-76 -172 -100 -243 -10 -29 -10 -29 -12 15 -4 84 -11 148 -25 223 -3 15 -7 38
-9 52 -19 110 -72 229 -125 282 -89 88 -214 72 -275 -37 -15 -26 -19 -53 -19
-114 0 -45 3 -92 7 -106 3 -14 10 -43 14 -65 5 -22 14 -50 21 -62 6 -13 9 -23
5 -23 -3 0 -2 -6 3 -12 6 -7 16 -31 23 -53 7 -22 30 -75 51 -118 22 -43 39
-80 39 -83 0 -4 -40 30 -85 74 -13 12 -26 22 -29 22 -6 0 -37 24 -61 48 -8 6
-18 12 -24 12 -6 0 -11 4 -11 8 0 5 -10 14 -22 20 -13 6 -50 27 -84 45 -128
72 -245 89 -307 45 -18 -12 -34 -26 -35 -30 -2 -5 -9 -14 -16 -21 -33 -33 -40
-99 -16 -157 15 -38 117 -149 138 -150 6 0 12 -4 12 -9 0 -5 8 -11 18 -14 9
-3 42 -20 72 -38 30 -17 78 -40 105 -51 28 -11 64 -26 80 -34 17 -7 39 -15 50
-17 11 -2 28 -7 37 -11 9 -4 22 -9 30 -10 35 -7 49 -21 58 -60 6 -22 17 -54
25 -71 7 -16 27 -73 44 -125 17 -52 34 -102 38 -110 3 -8 7 -19 8 -25 0 -5 4
-17 7 -25 11 -26 49 -134 53 -150 2 -8 13 -41 24 -72 11 -32 18 -58 15 -58 -2
0 3 -11 11 -24 9 -13 15 -28 13 -32 -1 -5 3 -18 9 -29 6 -11 12 -24 12 -30 2
-17 56 -180 61 -185 3 -3 6 -12 8 -20 3 -18 200 -607 212 -635 13 -31 21 -58
26 -85 3 -13 9 -29 13 -35 4 -5 14 -32 21 -60 7 -27 16 -54 20 -60 3 -5 15
-39 25 -75 11 -36 23 -69 27 -75 50 -62 80 -81 140 -90 37 -6 67 0 160 30 64
20 124 38 134 40 11 2 19 4 19 5 0 1 9 4 20 6 11 3 25 6 30 7 6 1 16 6 23 10
6 5 12 6 12 4 0 -3 21 1 48 9 26 8 65 17 87 21 22 3 47 9 55 13 9 5 35 11 59
15 24 3 54 11 68 16 14 5 28 8 30 5 3 -2 19 0 36 5 18 5 48 12 67 14 41 6 75
13 75 15 0 1 9 3 20 5 99 14 123 18 140 22 11 2 31 6 45 7 14 2 34 6 45 9 11
4 36 9 55 12 44 7 323 95 330 104 3 3 12 7 20 9 26 5 225 105 232 116 4 6 8 7
8 3 0 -5 13 1 29 12 16 12 36 21 45 21 9 0 16 4 16 10 0 5 11 12 25 16 14 3
25 10 25 15 0 5 6 9 13 9 6 0 25 7 41 15 16 9 31 14 33 12 2 -2 -7 -26 -19
-53 -12 -27 -23 -53 -24 -59 -1 -5 -12 -32 -24 -60 -12 -27 -28 -64 -36 -81
-31 -71 -75 -166 -123 -267 -28 -59 -50 -110 -50 -113 0 -4 -3 -10 -8 -13 -5
-3 -24 -37 -43 -76 -19 -38 -40 -77 -46 -85 -7 -8 -14 -22 -16 -30 -2 -8 -7
-19 -11 -25 -17 -22 -137 -229 -137 -237 0 -4 -5 -8 -12 -8 -6 0 -9 -3 -6 -6
5 -5 -104 -180 -131 -211 -6 -7 -11 -17 -11 -23 0 -5 -4 -10 -10 -10 -5 0 -10
-7 -10 -15 0 -8 -4 -15 -10 -15 -5 0 -10 -6 -10 -14 0 -8 -3 -16 -8 -18 -11
-5 -82 -106 -82 -118 0 -5 -8 -14 -17 -19 -10 -6 -14 -11 -10 -11 5 0 0 -12
-11 -27 -32 -47 -103 -183 -95 -183 5 0 3 -4 -2 -8 -12 -8 -39 -64 -37 -74 1
-5 -3 -8 -8 -8 -5 0 -9 -3 -8 -7 1 -5 -11 -34 -25 -67 -15 -32 -27 -60 -27
-62 0 -2 -11 -28 -25 -58 -14 -30 -25 -62 -25 -70 0 -9 -5 -16 -10 -16 -6 0
-9 -3 -8 -7 2 -7 -40 -127 -62 -178 -10 -23 -100 -297 -104 -317 -2 -7 -6 -20
-9 -28 -7 -18 -47 -155 -53 -184 -9 -37 -12 -51 -14 -53 -2 -2 -3 -6 -4 -10
-10 -47 -39 -161 -43 -173 -3 -8 -7 -22 -9 -30 -3 -21 -12 -62 -29 -134 -8
-33 -16 -74 -19 -91 -3 -16 -8 -41 -11 -55 -4 -14 -8 -38 -11 -55 -3 -16 -9
-52 -14 -80 -16 -82 -22 -119 -25 -145 -2 -14 -5 -38 -8 -55 -8 -45 -18 -123
-24 -175 -2 -25 -6 -58 -8 -75 -5 -33 -13 -140 -23 -280 -11 -167 -4 -685 9
-685 4 0 6 -12 6 -27 -1 -24 6 -84 19 -173 7 -45 9 -55 17 -67 5 -7 6 -13 4
-13 -4 0 26 -148 39 -195 3 -11 6 -26 6 -32 1 -7 4 -13 8 -13 4 0 7 -6 8 -12
3 -49 73 -229 136 -351 61 -119 133 -225 214 -317 50 -58 82 -88 207 -194 17
-14 36 -26 43 -26 6 0 12 -4 12 -10 0 -5 6 -10 14 -10 8 0 16 -4 18 -9 6 -17
193 -108 296 -144 56 -20 104 -37 107 -37 3 0 6 0 8 -1 60 -18 256 -53 290
-51 9 0 15 -3 12 -9 -4 -5 3 -5 18 0 14 6 28 7 31 4 13 -13 537 -19 691 -8 44
4 105 8 135 10 30 2 55 4 55 5 0 1 18 3 40 5 72 5 190 21 190 25 0 2 38 8 85
14 19 2 46 7 60 10 14 4 45 11 70 16 25 5 55 12 68 15 12 3 31 7 41 9 11 3 28
9 39 15 11 6 22 8 25 5 3 -3 12 -2 19 2 7 5 18 9 23 10 49 10 344 130 355 145
3 3 24 16 48 28 44 23 118 72 188 126 52 41 192 183 212 218 9 15 19 27 23 27
4 0 12 14 19 30 7 17 16 30 21 30 5 0 8 3 7 8 0 4 18 46 40 93 23 48 42 93 42
101 0 8 5 19 12 26 7 7 9 12 6 12 -4 0 -2 15 3 33 6 17 12 43 14 57 18 104 22
153 19 215 -6 132 -18 250 -24 250 -1 0 -4 11 -7 25 -7 38 -11 55 -13 58 -2 1
-3 5 -4 10 -4 23 -65 161 -76 172 -12 12 -50 70 -50 76 0 20 -183 174 -206
174 -4 0 -15 7 -24 15 -10 9 -26 18 -36 20 -11 3 -51 16 -89 29 -74 26 -94 31
-190 42 -117 14 -273 9 -380 -11 -16 -3 -38 -7 -47 -8 -10 -1 -18 -6 -18 -11
0 -5 -3 -7 -6 -3 -10 10 -184 -61 -184 -75 0 -4 -6 -8 -13 -8 -7 0 -29 -12
-48 -28 -45 -36 -179 -175 -174 -180 2 -2 -5 -14 -16 -26 -11 -11 -34 -46 -51
-76 -18 -30 -34 -57 -37 -60 -3 -3 -26 -44 -51 -92 -25 -49 -49 -88 -54 -88
-5 0 -7 -3 -3 -6 14 -14 -131 -215 -202 -279 -44 -39 -152 -105 -163 -99 -4 3
-8 0 -8 -6 0 -6 -4 -8 -10 -5 -5 3 -10 2 -10 -3 0 -5 -6 -9 -12 -10 -7 0 -40
-8 -73 -16 -128 -33 -239 -15 -349 54 -26 17 -51 30 -57 30 -6 0 -7 5 -4 10 3
6 1 10 -6 10 -13 0 -81 69 -114 115 -11 15 -35 57 -54 94 -45 88 -52 104 -54
121 -2 8 -5 20 -9 25 -6 10 -14 46 -24 100 -2 17 -8 39 -11 50 -7 23 -8 27
-18 150 -10 121 -12 260 -4 313 3 23 2 42 -3 42 -5 0 -6 6 -2 12 7 11 10 38
15 128 3 51 36 287 50 359 6 30 13 64 15 75 6 42 12 73 29 151 9 44 17 86 18
93 0 6 3 12 6 12 3 0 7 10 7 23 1 12 4 31 7 42 8 30 37 146 43 175 9 37 10 43
17 60 8 21 30 102 31 120 1 9 5 21 10 28 4 6 4 12 0 12 -3 0 -1 7 6 15 6 8 9
19 5 25 -3 5 -2 10 3 10 5 0 9 6 9 13 0 13 58 204 100 327 14 41 26 82 27 90
1 8 8 26 16 40 7 14 13 26 12 28 -1 1 -2 3 -1 5 0 1 2 11 4 22 2 11 9 21 15
23 5 2 8 7 5 11 -3 7 26 98 49 153 4 9 8 22 10 30 1 7 5 19 9 25 5 7 10 21 12
30 3 16 37 109 112 303 22 59 40 104 75 187 6 15 12 30 12 33 1 3 14 37 30 75
29 71 41 99 72 170 9 22 16 45 15 51 -1 6 6 17 14 24 8 7 15 18 15 25 0 7 14
43 31 81 31 68 51 115 54 124 0 3 12 28 24 55 49 104 84 180 86 185 1 3 16 35
33 73 18 37 32 70 32 74 0 4 6 14 14 22 8 9 16 22 18 30 2 7 31 72 66 143 34
72 64 135 65 142 1 6 5 13 8 16 4 3 18 31 33 63 14 31 38 83 53 115 15 31 28
59 28 62 1 3 16 37 34 75 18 39 34 75 35 80 2 6 14 33 27 60 13 28 24 52 24
55 1 3 7 19 14 35 6 17 14 36 16 43 6 16 44 7 108 -25 26 -13 47 -20 47 -16 0
5 4 3 8 -2 4 -6 25 -18 47 -27 22 -9 92 -37 155 -63 63 -25 122 -48 130 -50 8
-3 66 -20 129 -40 63 -19 123 -37 135 -39 12 -2 41 -9 65 -15 25 -5 49 -8 53
-5 4 3 8 2 8 -3 0 -4 10 -9 23 -9 12 -1 42 -5 67 -9 25 -5 55 -8 68 -9 12 0
22 -2 22 -5 0 -6 7 -7 240 -11 80 -2 149 -5 155 -8 5 -3 28 -7 51 -8 50 -3
186 -27 344 -61 173 -36 154 -32 245 -56 41 -12 57 -12 101 0 95 24 145 103
144 227 0 33 2 77 4 96 2 19 7 71 11 115 3 44 8 100 10 125 2 25 7 83 11 130
3 47 8 101 10 120 2 19 6 67 9 105 2 39 7 93 10 120 5 54 17 198 21 255 1 19
3 35 3 35 1 0 4 34 7 75 5 90 12 175 14 175 2 0 7 66 15 170 11 162 22 290 24
290 2 0 12 120 15 173 2 39 6 45 46 69 25 15 46 30 48 35 2 4 9 8 16 8 6 0 23
9 36 19 14 11 53 40 86 65 96 71 224 211 224 245 0 5 4 11 10 13 5 2 11 12 13
23 1 11 5 25 8 30 9 15 3 76 -9 107 -6 15 -25 40 -42 57 -107 102 -286 21
-480 -218 -19 -23 -39 -48 -45 -55 -5 -6 -16 -21 -23 -31 -7 -11 -21 -33 -33
-50 l-20 -30 5 30 c3 17 7 41 11 55 12 53 24 138 31 215 7 75 7 66 1 150 -13
182 -88 275 -211 261 -94 -10 -146 -76 -169 -213 -20 -116 -7 -362 23 -455 14
-44 -3 -33 -35 22 -16 28 -33 50 -38 50 -4 0 -5 5 -2 10 3 6 1 10 -4 10 -6 0
-11 5 -11 10 0 6 -8 18 -17 29 -10 10 -40 45 -68 76 -65 75 -117 125 -131 125
-7 0 -15 7 -18 16 -3 8 -10 12 -16 9 -5 -3 -10 -2 -10 2 0 16 -85 45 -132 46
-38 0 -55 -6 -91 -34 -25 -19 -43 -36 -41 -38 2 -2 -3 -13 -13 -23 -9 -10 -13
-18 -8 -18 4 0 3 -6 -2 -12 -15 -21 -1 -122 18 -134 5 -3 9 -14 9 -25 0 -10 5
-19 10 -19 6 0 10 -5 10 -10 0 -30 166 -192 280 -275 30 -22 57 -42 60 -45 9
-9 45 -30 61 -36 13 -4 17 -20 19 -62 4 -113 6 -137 13 -149 4 -6 3 -14 -3
-18 -6 -4 -7 -12 -3 -18 4 -6 8 -41 9 -77 4 -150 15 -334 20 -341 3 -5 0 -18
-7 -30 -6 -12 -7 -19 -1 -15 6 3 9 -13 8 -44 -1 -27 1 -55 5 -62 4 -7 3 -18
-3 -25 -6 -7 -7 -13 -2 -13 5 0 8 -24 8 -52 -1 -29 4 -56 10 -60 8 -6 8 -8 0
-8 -6 0 -10 -12 -8 -27 3 -26 7 -103 20 -343 2 -47 4 -91 4 -97 0 -7 0 -19 0
-25 0 -12 2 -64 14 -291 5 -89 4 -98 -12 -93 -9 2 -51 15 -92 27 -41 12 -79
22 -85 24 -5 1 -17 4 -25 7 -8 3 -33 11 -55 18 -22 7 -51 17 -65 23 -14 6 -29
11 -35 11 -14 2 -57 16 -80 26 -37 17 -110 42 -137 47 -16 3 -28 9 -28 14 0 5
-10 9 -23 9 -13 0 -27 4 -33 8 -16 14 -241 95 -299 108 -5 1 -40 9 -76 18 -37
9 -86 18 -110 21 -24 3 -51 8 -59 10 -26 8 -110 15 -230 20 -100 4 -246 13
-317 19 -12 1 -24 4 -27 6 -4 5 53 184 66 205 5 8 22 63 34 108 1 4 2 8 4 10
1 1 3 9 5 17 2 8 16 53 30 100 15 47 29 94 30 105 2 11 16 61 30 110 14 50 27
104 30 120 2 17 9 48 15 70 6 22 13 54 15 70 2 17 7 41 11 55 3 14 7 37 8 53
0 15 4 27 7 27 4 0 7 10 7 23 0 12 5 58 12 102 7 44 14 100 16 125 1 25 3 45
4 45 14 0 20 515 7 660 -4 50 -9 101 -11 115 -3 14 -7 43 -11 65 -3 22 -8 49
-10 61 -3 12 -7 39 -11 60 -3 21 -7 44 -8 49 -1 6 -4 15 -8 20 -3 6 -9 26 -12
45 -4 30 -27 114 -41 158 -3 7 -5 16 -6 20 -1 4 -7 23 -14 42 -7 19 -28 73
-45 120 -18 47 -35 90 -38 95 -4 6 -7 16 -9 24 -1 8 -7 17 -13 21 -6 4 -12 17
-13 28 -1 12 -4 22 -8 22 -4 0 -10 8 -13 18 -10 30 -103 182 -130 213 -14 16
-26 31 -26 34 0 3 -15 22 -32 42 -223 251 -461 419 -781 552 -53 22 -99 40
-102 41 -5 1 -7 1 -70 21 -22 7 -44 14 -50 15 -5 1 -44 11 -85 22 -41 12 -88
23 -105 26 -16 3 -70 12 -119 20 -49 9 -93 13 -97 10 -5 -3 -9 -1 -9 3 0 5
-17 9 -37 10 -112 4 -324 9 -326 7z"/>
<path d="M15409 3721 c-5 -12 -152 -164 -210 -216 -24 -22 -43 -41 -42 -42 2
-2 -18 -22 -44 -45 -26 -24 -59 -54 -74 -68 -14 -14 -61 -56 -104 -95 -43 -38
-85 -77 -94 -85 -9 -8 -43 -37 -76 -65 -33 -27 -69 -59 -81 -70 -41 -39 -74
-65 -74 -58 0 3 -10 -5 -23 -19 -13 -14 -36 -33 -50 -43 -35 -23 -34 -35 6
-62 17 -13 46 -36 64 -53 18 -16 35 -30 39 -30 4 0 17 -11 30 -26 13 -14 24
-22 24 -19 0 3 11 -5 25 -19 13 -13 41 -37 62 -53 38 -28 85 -67 109 -90 7 -7
15 -13 18 -13 3 0 14 -8 24 -17 31 -30 75 -67 117 -98 22 -17 45 -35 50 -41 6
-6 57 -49 115 -95 58 -46 115 -93 126 -104 12 -11 37 -31 55 -45 18 -14 41
-33 51 -42 10 -10 21 -18 26 -18 4 0 15 -8 23 -17 9 -10 25 -25 35 -33 32 -25
129 -104 134 -110 3 -3 28 -23 55 -44 28 -22 58 -48 68 -58 10 -10 21 -18 25
-18 4 0 25 -17 48 -38 22 -20 55 -48 73 -62 18 -14 45 -36 61 -50 16 -14 40
-34 54 -45 45 -35 70 -56 98 -81 15 -13 32 -24 36 -24 5 0 19 -13 32 -30 13
-16 27 -30 31 -30 9 0 45 -28 81 -63 10 -9 23 -17 28 -17 6 0 10 -3 10 -8 0
-4 24 -26 53 -48 28 -23 66 -53 82 -67 17 -14 57 -48 90 -74 70 -55 86 -69
120 -101 13 -12 27 -22 30 -22 4 0 20 -14 37 -30 16 -17 33 -30 36 -30 4 0 26
-18 50 -40 24 -22 45 -40 48 -40 4 0 51 -40 80 -68 7 -6 15 -12 18 -12 3 0 16
-10 29 -22 13 -13 32 -30 43 -38 70 -55 121 -97 135 -112 9 -10 21 -18 27 -18
6 0 12 -3 14 -8 2 -4 25 -25 53 -47 61 -49 103 -85 127 -108 10 -9 20 -17 23
-17 3 0 13 -8 23 -18 35 -32 62 -52 73 -52 5 0 7 -5 4 -10 -3 -6 1 -10 9 -10
9 0 16 -3 16 -7 0 -5 18 -21 39 -37 38 -28 39 -29 26 -60 -18 -44 -12 -116 15
-163 56 -100 216 -116 292 -29 123 139 -6 347 -186 302 -22 -5 -33 -2 -52 19
-13 14 -24 28 -24 31 0 8 -93 139 -104 146 -7 5 -7 8 -1 8 7 0 7 3 0 8 -11 8
-81 107 -148 210 -22 34 -44 62 -49 62 -4 0 -8 6 -8 13 0 7 -8 22 -17 33 -10
10 -24 31 -32 47 -8 15 -18 27 -23 27 -4 0 -8 5 -8 10 0 6 -18 35 -40 64 -22
29 -40 58 -40 64 0 5 -4 12 -8 14 -7 2 -156 214 -187 265 -5 9 -18 26 -27 37
-10 11 -18 25 -18 32 0 7 -3 14 -8 16 -8 3 -82 105 -82 113 0 3 -5 11 -10 18
-31 37 -70 91 -70 96 0 4 -8 16 -17 27 -10 11 -22 28 -28 37 -5 9 -55 82 -110
162 -55 80 -104 153 -110 162 -5 10 -15 22 -20 29 -6 6 -30 41 -54 78 -24 36
-48 66 -53 66 -5 0 -6 5 -3 10 3 6 1 10 -4 10 -6 0 -11 7 -11 15 0 7 -8 19
-17 24 -10 6 -14 11 -9 11 5 0 2 8 -7 18 -8 9 -31 40 -49 67 -143 209 -192
280 -239 348 -30 43 -58 85 -64 94 -10 17 -19 29 -42 57 -7 8 -13 19 -13 25 0
5 -3 11 -7 13 -5 2 -21 23 -38 48 -16 25 -56 82 -87 127 -32 46 -55 83 -52 83
2 0 -4 10 -16 22 -11 12 -46 61 -78 108 -257 378 -273 400 -283 371z"/>
</g>
</svg>
